<?xml version="1.0" encoding="UTF-8" standalone="no"?>
<svg
   xmlns:dc="http://purl.org/dc/elements/1.1/"
   xmlns:cc="http://creativecommons.org/ns#"
   xmlns:rdf="http://www.w3.org/1999/02/22-rdf-syntax-ns#"
   xmlns:svg="http://www.w3.org/2000/svg"
   xmlns="http://www.w3.org/2000/svg"
   viewBox="0 0 460.29999 33.600002"
   height="33.600002"
   width="460.29999"
   xml:space="preserve"
   version="1.1"
   id="svg2"><metadata
     id="metadata8"><rdf:RDF><cc:Work
         rdf:about=""><dc:format>image/svg+xml</dc:format><dc:type
           rdf:resource="http://purl.org/dc/dcmitype/StillImage" /></cc:Work></rdf:RDF></metadata><defs
     id="defs6"><clipPath
       id="clipPath18"
       clipPathUnits="userSpaceOnUse"><path
         id="path20"
         d="m 0.488,26.396 41.277,0 0,-25.914 -41.277,0 0,25.914 z" /></clipPath><clipPath
       id="clipPath28"
       clipPathUnits="userSpaceOnUse"><path
         id="path30"
         d="m 15,15 12,0 0,8 -12,0 0,-8 z" /></clipPath><clipPath
       id="clipPath42"
       clipPathUnits="userSpaceOnUse"><path
         id="path44"
         d="m 0.488,26.392 41.281,0 0,-25.922 -41.281,0 0,25.922 z" /></clipPath><clipPath
       id="clipPath52"
       clipPathUnits="userSpaceOnUse"><path
         id="path54"
         d="M 6,3 37,3 37,12 6,12 6,3 Z" /></clipPath><clipPath
       id="clipPath66"
       clipPathUnits="userSpaceOnUse"><path
         id="path68"
         d="m 42.25,26.392 70.336,0 0,-25.922 -70.336,0 0,25.922 z" /></clipPath><clipPath
       id="clipPath76"
       clipPathUnits="userSpaceOnUse"><path
         id="path78"
         d="m 42,0 71,0 0,27 -71,0 0,-27 z" /></clipPath><clipPath
       id="clipPath86"
       clipPathUnits="userSpaceOnUse"><path
         id="path88"
         d="m 42.238,26.52 70.348,0 0,-25.918 -70.348,0 0,25.918 z" /></clipPath><clipPath
       id="clipPath96"
       clipPathUnits="userSpaceOnUse"><path
         id="path98"
         d="m 48,15 60,0 0,8 -60,0 0,-8 z" /></clipPath><clipPath
       id="clipPath112"
       clipPathUnits="userSpaceOnUse"><path
         id="path114"
         d="m 61,3 33,0 0,9 -33,0 0,-9 z" /></clipPath><clipPath
       id="clipPath126"
       clipPathUnits="userSpaceOnUse"><path
         id="path128"
         d="m 113.07,26.392 77.52,0 0,-25.922 -77.52,0 0,25.922 z" /></clipPath><clipPath
       id="clipPath136"
       clipPathUnits="userSpaceOnUse"><path
         id="path138"
         d="m 113,0 78,0 0,27 -78,0 0,-27 z" /></clipPath><clipPath
       id="clipPath146"
       clipPathUnits="userSpaceOnUse"><path
         id="path148"
         d="m 113.07,26.52 77.52,0 0,-25.918 -77.52,0 0,25.918 z" /></clipPath><clipPath
       id="clipPath156"
       clipPathUnits="userSpaceOnUse"><path
         id="path158"
         d="m 121,15 62,0 0,8 -62,0 0,-8 z" /></clipPath><clipPath
       id="clipPath172"
       clipPathUnits="userSpaceOnUse"><path
         id="path174"
         d="m 138,3 17,0 0,9 -17,0 0,-9 z" /></clipPath><clipPath
       id="clipPath188"
       clipPathUnits="userSpaceOnUse"><path
         id="path190"
         d="m 155,3 11,0 0,9 -11,0 0,-9 z" /></clipPath><clipPath
       id="clipPath206"
       clipPathUnits="userSpaceOnUse"><path
         id="path208"
         d="m 191.07,26.392 77.43,0 0,-25.922 -77.43,0 0,25.922 z" /></clipPath><clipPath
       id="clipPath216"
       clipPathUnits="userSpaceOnUse"><path
         id="path218"
         d="m 191,0 78,0 0,27 -78,0 0,-27 z" /></clipPath><clipPath
       id="clipPath228"
       clipPathUnits="userSpaceOnUse"><path
         id="path230"
         d="m 191.07,26.52 77.422,0 0,-25.918 -77.422,0 0,25.918 z" /></clipPath><clipPath
       id="clipPath238"
       clipPathUnits="userSpaceOnUse"><path
         id="path240"
         d="m 208,15 45,0 0,8 -45,0 0,-8 z" /></clipPath><clipPath
       id="clipPath256"
       clipPathUnits="userSpaceOnUse"><path
         id="path258"
         d="m 218,5 24,0 0,7 -24,0 0,-7 z" /></clipPath><clipPath
       id="clipPath270"
       clipPathUnits="userSpaceOnUse"><path
         id="path272"
         d="m 268.98,26.396 49.195,0 0,-25.914 -49.195,0 0,25.914 z" /></clipPath><clipPath
       id="clipPath280"
       clipPathUnits="userSpaceOnUse"><path
         id="path282"
         d="m 284,15 20,0 0,8 -20,0 0,-8 z" /></clipPath><clipPath
       id="clipPath294"
       clipPathUnits="userSpaceOnUse"><path
         id="path296"
         d="m 268.98,26.392 49.199,0 0,-25.922 -49.199,0 0,25.922 z" /></clipPath><clipPath
       id="clipPath304"
       clipPathUnits="userSpaceOnUse"><path
         id="path306"
         d="m 275,3 38,0 0,9 -38,0 0,-9 z" /></clipPath><clipPath
       id="clipPath318"
       clipPathUnits="userSpaceOnUse"><path
         id="path320"
         d="m 318.66,26.396 49.094,0 0,-25.914 -49.094,0 0,25.914 z" /></clipPath><clipPath
       id="clipPath328"
       clipPathUnits="userSpaceOnUse"><path
         id="path330"
         d="m 337,15 12,0 0,8 -12,0 0,-8 z" /></clipPath><clipPath
       id="clipPath342"
       clipPathUnits="userSpaceOnUse"><path
         id="path344"
         d="m 318.66,26.392 49.094,0 0,-25.922 -49.094,0 0,25.922 z" /></clipPath><clipPath
       id="clipPath352"
       clipPathUnits="userSpaceOnUse"><path
         id="path354"
         d="m 328,3 31,0 0,9 -31,0 0,-9 z" /></clipPath></defs><g
     transform="matrix(1.25,0,0,-1.25,0,33.600001)"
     id="g10"><g
       id="g12" /><g
       id="g14"><g
         clip-path="url(#clipPath18)"
         id="g16"><g
           transform="translate(0,-0.119999)"
           id="g22"><g
             id="g24"><g
               clip-path="url(#clipPath28)"
               id="g26"><g
                 id="g32"><text
                   id="text34"
                   style="font-variant:normal;font-weight:bold;font-size:9px;font-family:Arial;-inkscape-font-specification:Arial-BoldMT;writing-mode:lr-tb;fill:#000000;fill-opacity:1;fill-rule:nonzero;stroke:none"
                   transform="matrix(1,0,0,-1,15.600002,15.72)"><tspan
                     id="tspan36"
                     y="0"
                     x="0 5.04">7E</tspan></text>
</g></g></g></g></g></g><g
       id="g38"><g
         clip-path="url(#clipPath42)"
         id="g40"><g
           transform="translate(0,-0.119999)"
           id="g46"><g
             id="g48"><g
               clip-path="url(#clipPath52)"
               id="g50"><g
                 id="g56"><text
                   id="text58"
                   style="font-variant:normal;font-weight:normal;font-size:9px;font-family:Arial;-inkscape-font-specification:ArialMT;writing-mode:lr-tb;fill:#000000;fill-opacity:1;fill-rule:nonzero;stroke:none"
                   transform="matrix(1,0,0,-1,5.880002,5.160001)"><tspan
                     id="tspan60"
                     y="0"
                     x="0 2.997 8.0279999 10.521 15.57 20.007 22.5 27.549">(1 byte)</tspan></text>
</g></g></g></g></g></g><g
       id="g62"><g
         clip-path="url(#clipPath66)"
         id="g64"><g
           transform="translate(0,-0.119999)"
           id="g70"><g
             id="g72"><g
               clip-path="url(#clipPath76)"
               id="g74"><g
                 id="g80" /><g
                 id="g82"><g
                   clip-path="url(#clipPath86)"
                   id="g84"><g
                     id="g90"><g
                       id="g92"><g
                         clip-path="url(#clipPath96)"
                         id="g94"><g
                           id="g100"><text
                             id="text102"
                             style="font-variant:normal;font-weight:normal;font-size:9px;font-family:Arial;-inkscape-font-specification:ArialMT;writing-mode:lr-tb;fill:#000000;fill-opacity:1;fill-rule:nonzero;stroke:none"
                             transform="matrix(1,0,0,-1,47.640001,15.48)"><tspan
                               id="tspan104"
                               y="0"
                               x="0 7.4429998 13.437 20.385 22.878 27.927 33.921001 40.418999 47.457001 52.848 59.346001">MSG LENGTH </tspan></text>
</g></g></g></g><g
                     id="g106"><g
                       id="g108"><g
                         clip-path="url(#clipPath112)"
                         id="g110"><g
                           id="g116"><text
                             id="text118"
                             style="font-variant:normal;font-weight:normal;font-size:9px;font-family:Arial;-inkscape-font-specification:ArialMT;writing-mode:lr-tb;fill:#000000;fill-opacity:1;fill-rule:nonzero;stroke:none"
                             transform="matrix(1,0,0,-1,61.08,5.160001)"><tspan
                               id="tspan120"
                               y="0"
                               x="0 2.997 8.0279999 13.059 15.552 20.601 22.518 25.011 29.583">(10 bits)</tspan></text>
</g></g></g></g></g></g></g></g></g></g></g><g
       id="g122"><g
         clip-path="url(#clipPath126)"
         id="g124"><g
           transform="translate(0,-0.119999)"
           id="g130"><g
             id="g132"><g
               clip-path="url(#clipPath136)"
               id="g134"><g
                 id="g140" /><g
                 id="g142"><g
                   clip-path="url(#clipPath146)"
                   id="g144"><g
                     id="g150"><g
                       id="g152"><g
                         clip-path="url(#clipPath156)"
                         id="g154"><g
                           id="g160"><text
                             id="text162"
                             style="font-variant:normal;font-weight:normal;font-size:9px;font-family:Arial;-inkscape-font-specification:ArialMT;writing-mode:lr-tb;fill:#000000;fill-opacity:1;fill-rule:nonzero;stroke:none"
                             transform="matrix(1,0,0,-1,120.87,15.48)"><tspan
                               id="tspan164"
                               y="0"
                               x="0 5.994 12.492 19.422001 24.912001 31.905001 38.367001 45.314999 50.346001 52.839001 55.368 61.866001">PROTOCOL ID </tspan></text>
</g></g></g></g><g
                     id="g166"><g
                       id="g168"><g
                         clip-path="url(#clipPath172)"
                         id="g170"><g
                           id="g176"><text
                             id="text178"
                             style="font-variant:normal;font-weight:normal;font-size:9px;font-family:Arial;-inkscape-font-specification:ArialMT;writing-mode:lr-tb;fill:#000000;fill-opacity:1;fill-rule:nonzero;stroke:none"
                             transform="matrix(1,0,0,-1,138.03,5.160001)"><tspan
                               id="tspan180"
                               y="0"
                               x="0 2.997 8.0279999 10.521 15.57">(6 bi</tspan></text>
</g></g></g></g><g
                     id="g182"><g
                       id="g184"><g
                         clip-path="url(#clipPath188)"
                         id="g186"><g
                           id="g192"><text
                             id="text194"
                             style="font-variant:normal;font-weight:normal;font-size:9px;font-family:Arial;-inkscape-font-specification:ArialMT;writing-mode:lr-tb;fill:#000000;fill-opacity:1;fill-rule:nonzero;stroke:none"
                             transform="matrix(1,0,0,-1,155.67,5.160001)"><tspan
                               id="tspan196"
                               y="0"
                               x="0 2.3940001 6.948">ts)</tspan></text>
</g></g></g></g></g></g></g></g></g></g></g><g
       id="g198"><path
         id="path200"
         style="fill:#9cc2e5;fill-opacity:1;fill-rule:evenodd;stroke:none"
         d="m 191.07,26.4 77.422,0 0,-25.918 -77.422,0 0,25.918 z" /></g><g
       id="g202"><g
         clip-path="url(#clipPath206)"
         id="g204"><g
           transform="translate(0,-0.119999)"
           id="g210"><g
             id="g212"><g
               clip-path="url(#clipPath216)"
               id="g214"><g
                 id="g220"><path
                   id="path222"
                   style="fill:#9cc2e5;fill-opacity:1;fill-rule:evenodd;stroke:none"
                   d="m 196.23,23.879 67.105,0 0,-10.32 -67.105,0 0,10.32 z" /></g><g
                 id="g224"><g
                   clip-path="url(#clipPath228)"
                   id="g226"><g
                     id="g232"><g
                       id="g234"><g
                         clip-path="url(#clipPath238)"
                         id="g236"><g
                           id="g242"><text
                             id="text244"
                             style="font-variant:normal;font-weight:normal;font-size:9px;font-family:Arial;-inkscape-font-specification:ArialMT;writing-mode:lr-tb;fill:#000000;fill-opacity:1;fill-rule:nonzero;stroke:none"
                             transform="matrix(1,0,0,-1,207.63,15.48)"><tspan
                               id="tspan246"
                               y="0"
                               x="0 7.4429998 13.437 19.431 25.424999 31.419001 38.358002 44.352001">MESSAGE </tspan></text>
</g></g></g></g><path
                     id="path248"
                     style="fill:#9cc2e5;fill-opacity:1;fill-rule:evenodd;stroke:none"
                     d="m 196.23,13.559 67.105,0 0,-10.32 -67.105,0 0,10.32 z" /><g
                     id="g250"><g
                       id="g252"><g
                         clip-path="url(#clipPath256)"
                         id="g254"><g
                           id="g260"><text
                             id="text262"
                             style="font-variant:normal;font-weight:normal;font-size:9px;font-family:Arial;-inkscape-font-specification:ArialMT;writing-mode:lr-tb;fill:#000000;fill-opacity:1;fill-rule:nonzero;stroke:none"
                             transform="matrix(1,0,0,-1,217.83,5.160001)"><tspan
                               id="tspan264"
                               y="0"
                               x="0 6.4980001 12.492 17.865">DATA</tspan></text>
</g></g></g></g></g></g></g></g></g></g></g><g
       id="g266"><g
         clip-path="url(#clipPath270)"
         id="g268"><g
           transform="translate(0,-0.119999)"
           id="g274"><g
             id="g276"><g
               clip-path="url(#clipPath280)"
               id="g278"><g
                 id="g284"><text
                   id="text286"
                   style="font-variant:normal;font-weight:normal;font-size:9px;font-family:Arial;-inkscape-font-specification:ArialMT;writing-mode:lr-tb;fill:#000000;fill-opacity:1;fill-rule:nonzero;stroke:none"
                   transform="matrix(1,0,0,-1,283.72999,15.48)"><tspan
                     id="tspan288"
                     y="0"
                     x="0 6.4980001 12.96 19.458">CRC </tspan></text>
</g></g></g></g></g></g><g
       id="g290"><g
         clip-path="url(#clipPath294)"
         id="g292"><g
           transform="translate(0,-0.119999)"
           id="g298"><g
             id="g300"><g
               clip-path="url(#clipPath304)"
               id="g302"><g
                 id="g308"><text
                   id="text310"
                   style="font-variant:normal;font-weight:normal;font-size:9px;font-family:Arial;-inkscape-font-specification:ArialMT;writing-mode:lr-tb;fill:#000000;fill-opacity:1;fill-rule:nonzero;stroke:none"
                   transform="matrix(1,0,0,-1,274.72999,5.160001)"><tspan
                     id="tspan312"
                     y="0"
                     x="0 2.997 7.4429998 12.474 15.471 17.504999 22.535999 27.540001 29.591999 34.623001">(variable)</tspan></text>
</g></g></g></g></g></g><g
       id="g314"><g
         clip-path="url(#clipPath318)"
         id="g316"><g
           transform="translate(0,-0.119999)"
           id="g322"><g
             id="g324"><g
               clip-path="url(#clipPath328)"
               id="g326"><g
                 id="g332"><text
                   id="text334"
                   style="font-variant:normal;font-weight:bold;font-size:9px;font-family:Arial;-inkscape-font-specification:Arial-BoldMT;writing-mode:lr-tb;fill:#000000;fill-opacity:1;fill-rule:nonzero;stroke:none"
                   transform="matrix(1,0,0,-1,337.60999,15.72)"><tspan
                     id="tspan336"
                     y="0"
                     x="0 5.04">7E</tspan></text>
</g></g></g></g></g></g><g
       id="g338"><g
         clip-path="url(#clipPath342)"
         id="g340"><g
           transform="translate(0,-0.119999)"
           id="g346"><g
             id="g348"><g
               clip-path="url(#clipPath352)"
               id="g350"><g
                 id="g356"><text
                   id="text358"
                   style="font-variant:normal;font-weight:normal;font-size:9px;font-family:Arial;-inkscape-font-specification:ArialMT;writing-mode:lr-tb;fill:#000000;fill-opacity:1;fill-rule:nonzero;stroke:none"
                   transform="matrix(1,0,0,-1,327.88999,5.160001)"><tspan
                     id="tspan360"
                     y="0"
                     x="0 2.997 8.0279999 10.521 15.57 20.007 22.5 27.549">(1 byte)</tspan></text>
</g></g></g></g></g></g><g
       id="g362"><path
         id="path364"
         style="fill:#000000;fill-opacity:1;fill-rule:evenodd;stroke:none"
         d="m 0,26.88 0.48,0 0,-0.48 -0.48,0 0,0.48 z" /><path
         id="path366"
         style="fill:#000000;fill-opacity:1;fill-rule:evenodd;stroke:none"
         d="m 0,26.88 0.48,0 0,-0.48 -0.48,0 0,0.48 z" /><path
         id="path368"
         style="fill:#000000;fill-opacity:1;fill-rule:evenodd;stroke:none"
         d="m 0.48,26.88 41.281,0 0,-0.48 -41.281,0 0,0.48 z" /><path
         id="path370"
         style="fill:#000000;fill-opacity:1;fill-rule:evenodd;stroke:none"
         d="m 41.762,26.88 0.477,0 0,-0.48 -0.477,0 0,0.48 z" /><path
         id="path372"
         style="fill:#000000;fill-opacity:1;fill-rule:evenodd;stroke:none"
         d="m 42.238,26.88 70.348,0 0,-0.48 -70.348,0 0,0.48 z" /><path
         id="path374"
         style="fill:#000000;fill-opacity:1;fill-rule:evenodd;stroke:none"
         d="m 112.59,26.88 0.48,0 0,-0.48 -0.48,0 0,0.48 z" /><path
         id="path376"
         style="fill:#000000;fill-opacity:1;fill-rule:evenodd;stroke:none"
         d="m 113.07,26.88 77.52,0 0,-0.48 -77.52,0 0,0.48 z" /><path
         id="path378"
         style="fill:#000000;fill-opacity:1;fill-rule:evenodd;stroke:none"
         d="m 190.59,26.88 0.48,0 0,-0.48 -0.48,0 0,0.48 z" /><path
         id="path380"
         style="fill:#000000;fill-opacity:1;fill-rule:evenodd;stroke:none"
         d="m 191.07,26.88 77.543,0 0,-0.48 -77.543,0 0,0.48 z" /><path
         id="path382"
         style="fill:#000000;fill-opacity:1;fill-rule:evenodd;stroke:none"
         d="m 268.609,26.88 0.48,0 0,-0.48 -0.48,0 0,0.48 z" /><path
         id="path384"
         style="fill:#000000;fill-opacity:1;fill-rule:evenodd;stroke:none"
         d="m 269.09,26.88 49.082,0 0,-0.48 -49.082,0 0,0.48 z" /><path
         id="path386"
         style="fill:#000000;fill-opacity:1;fill-rule:evenodd;stroke:none"
         d="m 318.172,26.88 0.477,0 0,-0.48 -0.477,0 0,0.48 z" /><path
         id="path388"
         style="fill:#000000;fill-opacity:1;fill-rule:evenodd;stroke:none"
         d="m 318.648,26.88 49.105,0 0,-0.48 -49.105,0 0,0.48 z" /><path
         id="path390"
         style="fill:#000000;fill-opacity:1;fill-rule:evenodd;stroke:none"
         d="m 367.762,26.88 0.477,0 0,-0.48 -0.477,0 0,0.48 z" /><path
         id="path392"
         style="fill:#000000;fill-opacity:1;fill-rule:evenodd;stroke:none"
         d="m 367.762,26.88 0.477,0 0,-0.48 -0.477,0 0,0.48 z" /><path
         id="path394"
         style="fill:#000000;fill-opacity:1;fill-rule:evenodd;stroke:none"
         d="m 0,26.4 0.48,0 0,-25.918 -0.48,0 0,25.918 z" /><path
         id="path396"
         style="fill:#000000;fill-opacity:1;fill-rule:evenodd;stroke:none"
         d="m 0,0.482 0.48,0 0,-0.48 -0.48,0 0,0.48 z" /><path
         id="path398"
         style="fill:#000000;fill-opacity:1;fill-rule:evenodd;stroke:none"
         d="m 0,0.482 0.48,0 0,-0.48 -0.48,0 0,0.48 z" /><path
         id="path400"
         style="fill:#000000;fill-opacity:1;fill-rule:evenodd;stroke:none"
         d="m 0.48,0.482 41.281,0 0,-0.48 -41.281,0 0,0.48 z" /><path
         id="path402"
         style="fill:#000000;fill-opacity:1;fill-rule:evenodd;stroke:none"
         d="m 41.762,26.4 0.477,0 0,-25.918 -0.477,0 0,25.918 z" /><path
         id="path404"
         style="fill:#000000;fill-opacity:1;fill-rule:evenodd;stroke:none"
         d="m 41.762,0.482 0.477,0 0,-0.48 -0.477,0 0,0.48 z" /><path
         id="path406"
         style="fill:#000000;fill-opacity:1;fill-rule:evenodd;stroke:none"
         d="m 42.238,0.482 70.348,0 0,-0.48 -70.348,0 0,0.48 z" /><path
         id="path408"
         style="fill:#000000;fill-opacity:1;fill-rule:evenodd;stroke:none"
         d="m 112.59,26.4 0.48,0 0,-25.918 -0.48,0 0,25.918 z" /><path
         id="path410"
         style="fill:#000000;fill-opacity:1;fill-rule:evenodd;stroke:none"
         d="m 112.59,0.482 0.48,0 0,-0.48 -0.48,0 0,0.48 z" /><path
         id="path412"
         style="fill:#000000;fill-opacity:1;fill-rule:evenodd;stroke:none"
         d="m 113.07,0.482 77.52,0 0,-0.48 -77.52,0 0,0.48 z" /><path
         id="path414"
         style="fill:#000000;fill-opacity:1;fill-rule:evenodd;stroke:none"
         d="m 190.59,26.4 0.48,0 0,-25.918 -0.48,0 0,25.918 z" /><path
         id="path416"
         style="fill:#000000;fill-opacity:1;fill-rule:evenodd;stroke:none"
         d="m 190.59,0.482 0.48,0 0,-0.48 -0.48,0 0,0.48 z" /><path
         id="path418"
         style="fill:#000000;fill-opacity:1;fill-rule:evenodd;stroke:none"
         d="m 191.07,0.482 77.543,0 0,-0.48 -77.543,0 0,0.48 z" /><path
         id="path420"
         style="fill:#000000;fill-opacity:1;fill-rule:evenodd;stroke:none"
         d="m 268.609,26.4 0.48,0 0,-25.918 -0.48,0 0,25.918 z" /><path
         id="path422"
         style="fill:#000000;fill-opacity:1;fill-rule:evenodd;stroke:none"
         d="m 268.609,0.482 0.48,0 0,-0.48 -0.48,0 0,0.48 z" /><path
         id="path424"
         style="fill:#000000;fill-opacity:1;fill-rule:evenodd;stroke:none"
         d="m 269.09,0.482 49.082,0 0,-0.48 -49.082,0 0,0.48 z" /><path
         id="path426"
         style="fill:#000000;fill-opacity:1;fill-rule:evenodd;stroke:none"
         d="m 318.172,26.4 0.477,0 0,-25.918 -0.477,0 0,25.918 z" /><path
         id="path428"
         style="fill:#000000;fill-opacity:1;fill-rule:evenodd;stroke:none"
         d="m 318.172,0.482 0.477,0 0,-0.48 -0.477,0 0,0.48 z" /><path
         id="path430"
         style="fill:#000000;fill-opacity:1;fill-rule:evenodd;stroke:none"
         d="m 318.648,0.482 49.105,0 0,-0.48 -49.105,0 0,0.48 z" /><path
         id="path432"
         style="fill:#000000;fill-opacity:1;fill-rule:evenodd;stroke:none"
         d="m 367.762,26.4 0.477,0 0,-25.918 -0.477,0 0,25.918 z" /><path
         id="path434"
         style="fill:#000000;fill-opacity:1;fill-rule:evenodd;stroke:none"
         d="m 367.762,0.482 0.477,0 0,-0.48 -0.477,0 0,0.48 z" /><path
         id="path436"
         style="fill:#000000;fill-opacity:1;fill-rule:evenodd;stroke:none"
         d="m 367.762,0.482 0.477,0 0,-0.48 -0.477,0 0,0.48 z" /></g></g></svg>